<?xml version="1.0" encoding="UTF-8"?>
<svg width="752pt" height="752pt" version="1.1" viewBox="0 0 752 752" xmlns="http://www.w3.org/2000/svg">
 <g>
  <path d="m543.02 340.81-12.934-7.4648-1.3398 0.76953-29.281 16.902 12.934 7.4727z"/>
  <path d="m522.21 329.4-30.09 17.371 5.3633 3.0977 24.727-14.277z"/>
  <path d="m520.18 362.98 25.426-14.68v-5.3789l-30.086 17.371z"/>
  <path d="m518.39 328-15.223-8.7852-0.10547 0.058594-0.003906 0.003906h-0.003907l-3.1836 1.832-26.102 15.07 15.23 8.793z"/>
  <path d="m498.8 315.9-30.082 17.371 3.6289 2.0977 26.453-15.281z"/>
  <path d="m535.8 372 31.023-17.906-14.199-8.2031-1.7461 1.0078h-0.003906l-4.1992 2.4297-25.078 14.477z"/>
  <path d="m495.11 314.43-14.941-8.6289-0.23437 0.13672h-0.003907l-3.457 2-25.816 14.898 14.941 8.6328z"/>
  <path d="m569 359.68v-3.2461l-32.492 18.758v6.1875l32.492-18.758z"/>
  <path d="m452 288.87-30.082 17.371 4.4531 2.5781 25.629-14.801z"/>
  <path d="m475.4 302.38-30.086 17.371 3.9141 2.2695 26.172-15.117z"/>
  <path d="m568.3 355.2-0.27344-0.15625-31.867 18.391h-0.003906c-0.085938 0.050781-0.17578 0.066406-0.26953 0.074218-0.027344 0.007813-0.058594 0.027344-0.085938 0.027344-0.027343 0-0.058593-0.019531-0.085937-0.027344-0.09375-0.007812-0.18359-0.023437-0.26953-0.074218h-0.003906l-15.625-9.0156-6.0703-3.5039h-0.003906c-0.003907 0 0-0.007812-0.003907-0.007812-0.097656-0.058594-0.1875-0.13672-0.25391-0.25-0.019531-0.03125 0-0.066406-0.015625-0.097656-0.039062-0.089844-0.03125-0.16016-0.03125-0.26563 0-0.09375-0.003906-0.16406 0.03125-0.26172 0.015625-0.027344-0.003906-0.066406 0.015625-0.09375 0.03125-0.058594 0.097656-0.066406 0.14844-0.10938 0.042969-0.046875 0.058594-0.11328 0.10938-0.14844l31.152-17.992-0.27344-0.15625-31.867 18.398h-0.003906c-0.074219 0.046875-0.15625 0.058594-0.24609 0.066407-0.03125 0.007812-0.070312 0.027343-0.10547 0.027343-0.03125 0-0.074219-0.019531-0.10547-0.027343-0.089844-0.007813-0.17188-0.019532-0.24609-0.066407h-0.003906l-14.348-8.2891h-0.003906l-0.5625-0.33203-6.7773-3.9102h-0.003906s0-0.007812-0.003906-0.007812c-0.097656-0.058594-0.1875-0.13672-0.25391-0.25-0.019532-0.03125 0-0.066407-0.015625-0.097657-0.039063-0.089843-0.03125-0.16016-0.03125-0.26562 0-0.09375-0.003907-0.16406 0.03125-0.26172 0.015625-0.027344-0.003907-0.066407 0.015625-0.09375 0.03125-0.058594 0.097656-0.066407 0.14844-0.10938 0.042969-0.046875 0.058594-0.11328 0.10938-0.14844l31.152-17.992-0.27344-0.15625-1.0664 0.60938-30.805 17.789h-0.003907c-0.085937 0.046875-0.17578 0.0625-0.26953 0.074219-0.027343 0-0.058593 0.019531-0.085937 0.019531s-0.058594-0.019531-0.085938-0.019531c-0.09375-0.015625-0.18359-0.027344-0.26953-0.074219h-0.003906l-16.645-9.6094h-0.003907l-5.043-2.9141-0.003906-0.007813h-0.003906c-0.097656-0.066406-0.1875-0.14844-0.25391-0.26172-0.019532-0.027344 0-0.066407-0.015625-0.09375-0.039063-0.089844-0.03125-0.16406-0.03125-0.26172 0-0.09375-0.003907-0.17578 0.03125-0.26172 0.015625-0.039062-0.003907-0.066406 0.015625-0.097656 0.03125-0.0625 0.097656-0.070313 0.14844-0.11328 0.042969-0.046874 0.058594-0.10937 0.10938-0.14844l31.152-17.98-0.27344-0.15625-0.94141 0.53516-30.926 17.855h-0.003906c-0.085938 0.050781-0.17578 0.066407-0.26953 0.074219-0.027344 0.007812-0.058594 0.027344-0.085938 0.027344s-0.058594-0.019532-0.085938-0.027344c-0.09375-0.007812-0.18359-0.023438-0.26953-0.074219h-0.003906l-16.363-9.4414-5.332-3.0781-0.003906-0.007812h-0.003906c-0.097656-0.066407-0.1875-0.14844-0.25391-0.26172-0.019532-0.027344 0-0.066407-0.015625-0.09375-0.039063-0.089844-0.03125-0.16406-0.03125-0.26172 0-0.09375-0.003907-0.17578 0.03125-0.26172 0.015625-0.039062-0.003907-0.066406 0.015625-0.097656 0.03125-0.0625 0.097656-0.070313 0.14062-0.11328 0.046875-0.046875 0.058593-0.10938 0.11328-0.14844l31.152-17.98-0.27344-0.15625-0.97656 0.55469-30.891 17.844h-0.003907c-0.085937 0.046875-0.17578 0.0625-0.26953 0.074219-0.027343 0-0.058593 0.019531-0.085937 0.019531s-0.058594-0.019531-0.085938-0.019531c-0.09375-0.015625-0.18359-0.027344-0.26953-0.074219h-0.003906l-15.824-9.1406 0.011719-0.003906-5.8672-3.3867h-0.003906s0-0.007813-0.003906-0.007813c-0.097657-0.058593-0.1875-0.13672-0.25391-0.25-0.019531-0.03125 0-0.066406-0.015624-0.097656-0.039063-0.089844-0.03125-0.16016-0.03125-0.26562 0-0.09375-0.003907-0.16406 0.03125-0.26172 0.015624-0.027343-0.003907-0.066406 0.015624-0.09375 0.03125-0.058593 0.097657-0.066406 0.14844-0.10937 0.042969-0.046876 0.058594-0.11328 0.10938-0.14844l31.152-17.992-0.27344-0.15625-31.867 18.398h-0.003906c-0.085938 0.046875-0.17578 0.0625-0.26953 0.074219-0.027344 0-0.058594 0.019531-0.085937 0.019531-0.027344 0-0.058594-0.019531-0.085938-0.019531-0.09375-0.015625-0.18359-0.027344-0.26953-0.074219h-0.003906l-15.883-9.1797-5.8164-3.3477-0.003906-0.007812h-0.003907c-0.097656-0.066406-0.1875-0.14844-0.25391-0.26172-0.019531-0.027344 0-0.066406-0.015625-0.09375-0.039062-0.085937-0.03125-0.16406-0.03125-0.26172 0-0.09375-0.003906-0.17578 0.03125-0.26172 0.015625-0.039063-0.003906-0.066407 0.015625-0.097657 0.03125-0.0625 0.097656-0.070312 0.14844-0.11328 0.042968-0.046875 0.058594-0.10938 0.10938-0.14844l31.152-17.992-0.28125-0.15625-0.40234 0.23047h-0.007813c-0.007812 0.007812-0.007812 0.007812-0.015625 0.019531h-0.003906l-31.438 18.148h-0.003906c-0.085938 0.050782-0.17578 0.066407-0.26953 0.074219-0.027344 0.007813-0.058594 0.027344-0.085938 0.027344s-0.058594-0.019531-0.085938-0.027344c-0.09375-0.007812-0.18359-0.023437-0.26953-0.074219h-0.003906l-14.699-8.4922c-0.003906 0-0.007812 0-0.015625-0.007813h-0.003906l-0.19531-0.10937h-0.003906l-6.7773-3.9102-0.003906-0.007812h-0.003906c-0.097656-0.066407-0.1875-0.14844-0.25391-0.26172-0.019532-0.027344 0-0.066406-0.015625-0.09375-0.03125-0.085938-0.03125-0.16406-0.03125-0.26172 0-0.09375 0-0.17578 0.03125-0.26172 0.015625-0.039062-0.003907-0.066406 0.015625-0.097656 0.03125-0.0625 0.097656-0.070312 0.14844-0.11328 0.042969-0.046875 0.058594-0.10938 0.10938-0.14844l31.156-17.98-0.27344-0.15625-32.496 18.758 164.08 94.734z"/>
  <path d="m342.59 340.64h35.031v10.766h-35.031z"/>
  <path d="m405.2 265.11v-3.2617l-30.094 17.371 5.3672 3.1055 18.762-10.844 5.9648-3.5117z"/>
  <path d="m362.68 380.16c-0.023438 0-0.050782 0-0.082032-0.007812-0.015625 0-0.019531-0.019532-0.03125-0.019532-0.03125 0-0.0625-0.027344-0.089844-0.039062-0.003906-0.007813-0.007812-0.007813-0.019531-0.007813-0.042969-0.019531-0.089843-0.019531-0.125-0.058593l-0.058593-0.058594v0.64844l0.57422-0.49219-0.09375 0.019531c-0.015625 0.015625-0.046875 0.015625-0.074218 0.015625z"/>
  <path d="m342.59 352.83h35.031v1.3125h-35.031z"/>
  <path d="m535.09 375.19-164.08-94.734v6.1914l164.08 94.73z"/>
  <path d="m425.39 273.61-13.586-7.6875-0.17578-0.09375v-0.003906l-0.57031 0.33984-4.793 2.8203-6.3203 3.7227h-0.003907l-0.003906 0.011719-17.859 10.527 13.309 7.6875z"/>
  <path d="m471.67 300.94-14.406-8.3086-0.1875 0.10938-4.0078 2.3086-25.277 14.586 14.406 8.3281z"/>
  <path d="m449.43 286.76-14.457-8.3516-1.3555 0.77734-3.9492 2.2812-25.336 14.625 14.461 8.3555z"/>
  <path d="m428.6 275.56v-0.20312l-30.086 17.383 4.3984 2.5312 25.688-14.828z"/>
  <path d="m365.51 377.82-0.003906 0.027344-0.035156 0.042969 0.125-0.10156v-0.11719l-0.0625 0.13281z"/>
  <path d="m298.62 451.62-31.816 18.371 16.219 9.3633 31.809-18.371z"/>
  <path d="m317.17 463.39-31.816 18.371 16.219 9.3555 31.812-18.367z"/>
  <path d="m276.24 441.24-31.82 18.371 16.219 9.3555 31.816-18.367z"/>
  <path d="m315.03 491.59 13.496 7.793 24.363-14.066-13.508-7.7969z"/>
  <path d="m193.65 393.56-31.812 18.363 16.215 9.3633 31.816-18.371z"/>
  <path d="m254.4 428.93-31.812 18.371 16.215 9.3711 31.82-18.371z"/>
  <path d="m331.62 371.21c0.019531 0.007813 0.042969 0 0.0625 0.019531l0.085938 0.082032v0.003906h0.003906c0.015625 0.019531 0.015625 0.039062 0.023437 0.058594 0.003907 0.007812 0.015625 0.007812 0.019531 0.019531 0.015626 0.015625 0.03125 0.019531 0.046876 0.039063l0.070312 0.12891c0.007812 0.019531 0 0.039062 0.003906 0.058594 0.003906 0.019531 0.027344 0.027343 0.03125 0.058593l0.023438 0.13672c0 0.019531-0.015625 0.039062-0.015625 0.058594 0 0.019531 0.019531 0.039062 0.015625 0.058594l-0.023438 0.15625c0 0.019531-0.019531 0.027343-0.023437 0.046874-0.003907 0.019532 0.003906 0.027344 0 0.046876l-0.070313 0.15625c-0.003906 0.007812-0.019531 0.007812-0.023437 0.019531-0.003907 0.015625 0 0.039062-0.007813 0.046875l-0.10547 0.14844c-0.007813 0.007813-0.023438 0-0.03125 0.007813-0.007813 0.015625-0.003907 0.027344-0.015626 0.039062l-0.13672 0.12891c-0.007813 0.007813-0.027344 0.007813-0.039063 0.019532-0.015625 0.003906-0.015625 0.019531-0.027343 0.027344l-0.16406 0.09375c-0.015625 0.007812-0.027344 0.007812-0.042969 0.007812-0.007812 0.007812-0.007812 0.019531-0.019531 0.019531l-0.11328 0.039063c0.003906 0 0.007812 0.007812 0.019531 0.007812 0.019531 0 0.027344-0.019531 0.046875-0.015625l0.17188 0.027344c0.015625 0.003906 0.023437 0.023437 0.042969 0.023437 0.015625 0.007813 0.03125 0 0.046875 0.007813l0.13672 0.066406c0.015624 0.003907 0.019531 0.027344 0.03125 0.039063 0.015624 0.007812 0.039062 0 0.050781 0.019531l0.085937 0.074219c0.003906 0 0 0.003906 0.003906 0.007812h0.007813c0.015625 0.019532 0.015625 0.039063 0.023437 0.058594 0.019532 0.019531 0.046876 0.019531 0.0625 0.046875 0.003907 0.007813 0 0.019531 0 0.027344 0.003907 0.003906 0.015626 0.007812 0.019532 0.015625l0.050781 0.097656c0.007813 0.019531 0 0.039062 0.003906 0.058594 0.007813 0.023437 0.027344 0.039062 0.03125 0.058594l0.023438 0.14844c0.003906 0.019531-0.015625 0.039063-0.015625 0.058594s0.015625 0.027343 0.015625 0.050781l-0.023438 0.15625c0 0.023438-0.019531 0.03125-0.027343 0.050781-0.003907 0.007813 0.003906 0.027344 0 0.046875l-0.070313 0.14844c-0.003906 0.007812-0.019531 0.007812-0.023437 0.019531-0.003907 0.007813 0 0.027344-0.007813 0.039063-0.003906 0.015624-0.023437 0.007812-0.027344 0.019531-0.003906 0.015625 0 0.027343-0.007812 0.046875l-0.074219 0.09375c-0.003906 0.007812-0.019531 0.007812-0.027344 0.019531-0.007812 0.007813-0.003906 0.019531-0.015625 0.027344l-0.13672 0.12891c-0.007812 0.007813-0.027343 0.007813-0.039062 0.019531-0.015625 0.003906-0.015625 0.019532-0.027344 0.027344l-0.17188 0.09375c-0.015625 0.007812-0.027343 0.007812-0.042969 0.007812 0 0-0.003906 0.007813-0.003906 0.007813l0.09375 0.007813c0.019532 0.007812 0.027344 0.027343 0.046875 0.027343 0.019531 0.007813 0.039063 0 0.058594 0.007813l0.13672 0.066406c0.019531 0.007812 0.023437 0.027344 0.039062 0.039062 0.019532 0.015626 0.039063 0.007813 0.058594 0.023438l0.085938 0.082031c0.015624 0.015625 0.007812 0.039063 0.023437 0.058594 0.019531 0.019531 0.050781 0.027344 0.070313 0.058594l0.070312 0.12891c0.007812 0.019531 0 0.039063 0.003906 0.058594s0.027344 0.039062 0.03125 0.058593l0.023438 0.14844c0.003906 0.019531-0.015625 0.039062-0.015625 0.058594 0 0.019531 0.015625 0.027344 0.015625 0.050781l-0.023438 0.15625c0 0.023437-0.019531 0.03125-0.027344 0.050781-0.003906 0.007813 0.003907 0.027344 0 0.046875l-0.070312 0.14844c-0.003906 0.007812-0.019531 0.007812-0.023438 0.019531-0.003906 0.015625 0 0.027344-0.007812 0.046875l-0.10547 0.14844c-0.003906 0.007813-0.023437 0.003907-0.03125 0.019532-0.007812 0.007812-0.007812 0.027344-0.023437 0.039062l-0.050782 0.046875 0.5625-0.10938v-5.1523l-0.60156 0.12891c-0.023438-0.058594-0.015625-0.039063 0-0.023438z"/>
  <path d="m323.76 369.44-0.0625-0.097656v0.097656z"/>
  <path d="m325.37 373.59c-0.007813 0.003906-0.019532 0.015625-0.027344 0.015625-0.058594 0-0.11328-0.007813-0.17188-0.039063-0.007813-0.007812-0.015625-0.027344-0.023438-0.039062 0 0.019531-0.007812 0.019531-0.015625 0.03125 0 0.015625 0.007813 0.023437 0.003906 0.042968 0 0-0.003906 0.003907-0.007812 0.007813v0.019531c-0.003906 0.023438-0.03125 0.039063-0.046875 0.066406-0.007813 0.039063 0.003906 0.074219-0.015625 0.10547-0.003906 0.007813-0.019531 0.003907-0.023438 0.015625-0.042968 0.09375-0.11328 0.17578-0.22266 0.20312-0.03125 0.007813-0.066406 0.007813-0.097656 0.007813h-0.015625c-0.015625 0-0.019531 0.019531-0.03125 0.019531-0.050781 0-0.10547-0.019531-0.15234-0.046875l-0.003906 0.085938c0 0.007812-0.015625 0.019531-0.015625 0.027343 0 0.015625 0.003906 0.023438 0.003906 0.039063v0.007812c0 0.003906-0.007812 0.007813-0.007812 0.019532-0.003906 0.019531-0.019532 0.039062-0.03125 0.058593-0.007813 0.046875 0 0.09375-0.027344 0.12891-0.003906 0.007812-0.015625 0.007812-0.023438 0.015624-0.042968 0.089844-0.11328 0.16016-0.21875 0.1875-0.019531 0.003907-0.039062 0.003907-0.0625 0.007813l0.49219 0.78516-0.007812-0.13672c0-0.007812 0.007812-0.007812 0.007812-0.019531 0-0.007812-0.007812-0.019531-0.007812-0.027343l0.007812-0.13672c0-0.007813 0.015625-0.007813 0.015625-0.019531 0-0.015626-0.003906-0.023438-0.003906-0.039063l0.023437-0.097656c0.003906-0.019531 0.027344-0.027344 0.03125-0.046875 0.003906-0.019532 0-0.039063 0.007813-0.058594 0.003906-0.007812 0.019531-0.015625 0.027343-0.023438 0.015626-0.03125 0.042969-0.050781 0.070313-0.082031 0.003906-0.007812 0.015625-0.019531 0.023437-0.019531 0.039063-0.039062 0.070313-0.085938 0.125-0.097656 0.007813 0 0.023438 0.007812 0.03125 0.007812 0.097657-0.039062 0.20313-0.039062 0.29297 0.019532 0.023438 0.019531 0.027344 0.046874 0.046875 0.066406 0.03125 0.019531 0.070313 0.019531 0.09375 0.058594v-1.1094h-0.03125c0-0.007812-0.003906-0.007812-0.011718-0.011718z"/>
  <path d="m324.17 372.05c0.039062-0.039062 0.066406-0.085937 0.11328-0.09375 0.007812-0.007812 0.023438 0 0.03125 0 0.097656-0.039062 0.20703-0.039062 0.29688 0.019531 0.003906 0.003907 0.007813 0.007813 0.015625 0.019532 0-0.007813 0.007812-0.007813 0.007812-0.019532 0-0.007812-0.003906-0.019531-0.003906-0.027343l0.023438-0.10938c0.003906-0.019532 0.027344-0.03125 0.039062-0.058594 0.007813-0.019531 0-0.046875 0.015625-0.066406 0.003907-0.007813 0.015625-0.007813 0.023438-0.019532 0.015625-0.027343 0.042969-0.039062 0.066406-0.066406 0.007813-0.007812 0.019531-0.019531 0.027344-0.023437 0.039062-0.03125 0.066406-0.082031 0.125-0.097657 0.007812 0 0.019531 0.007813 0.03125 0.007813 0.023437-0.007813 0.039062-0.019531 0.0625-0.019531l-0.52734-0.84375v0.007812c0 0.007813 0.003906 0.007813 0.003906 0.019532l0.007813 0.16406c0 0.007812-0.007813 0.007812-0.007813 0.019531 0 0.007813 0.007813 0.015625 0.007813 0.019531l-0.007813 0.13672c0 0.019531-0.015625 0.023438-0.015625 0.039063 0 0.007812 0.003906 0.019531 0.003906 0.027344v0.007812c0 0.007812-0.007812 0.019531-0.015624 0.027344 0 0-0.003907 0.007812-0.007813 0.007812-0.003906 0.019532-0.015625 0.027344-0.019531 0.039063-0.007813 0.046875 0 0.09375-0.027344 0.13672-0.003906 0.003906-0.015625 0-0.023438 0.007812-0.042968 0.09375-0.11328 0.15625-0.21875 0.18359-0.03125 0.007812-0.066406 0.019531-0.097656 0.019531-0.003906 0-0.007812-0.007813-0.015625-0.007813-0.015625 0.007813-0.019531 0.019532-0.03125 0.019532-0.070312 0-0.13672-0.019532-0.19922-0.058594-0.023437-0.019531-0.027343-0.046875-0.046874-0.066406-0.023438-0.019532-0.0625-0.019532-0.085938-0.046875l-0.027344-0.027344v1.1562h0.015625c0.066407-0.019531 0.12891-0.007813 0.19531 0.007813 0.019531 0 0.042968 0 0.0625 0.007812l0.003906-0.09375c0-0.007812 0.015625-0.007812 0.015625-0.019531 0-0.015625-0.003906-0.023438-0.003906-0.039063l0.023437-0.097656c0.003906-0.019531 0.027344-0.03125 0.042969-0.058594 0.007813-0.019531 0-0.046875 0.015625-0.066406 0.003906-0.007812 0.015625-0.007812 0.019531-0.015625 0.015625-0.027344 0.042969-0.042969 0.066407-0.0625-0.003907 0.023437 0.003906 0.015625 0.019531 0.003906z"/>
  <path d="m326.49 371.46c0-0.003906-0.003907-0.003906-0.007813-0.003906-0.007813-0.003907-0.019531 0-0.03125-0.007813l-0.16016-0.058594c-0.015625 0-0.015625-0.019531-0.027344-0.019531-0.019531-0.007812-0.039063-0.007812-0.050781-0.019531l-0.125-0.085938c-0.007813-0.007812-0.007813-0.027343-0.023438-0.039062-0.015625-0.007813-0.027344-0.003907-0.039062-0.019531l-0.089844-0.09375c-0.015625-0.007813-0.007812-0.039063-0.023438-0.058594-0.019531-0.027344-0.046874-0.046875-0.058593-0.085938v-0.019531h-0.007813c-0.003906-0.027344 0.003906-0.046875 0-0.066406 0-0.015625-0.003906-0.019531-0.003906-0.039063-0.007812-0.027344-0.039062-0.058594-0.039062-0.09375 0-0.003906 0.007812-0.007812 0.007812-0.019531 0-0.003906-0.011719 0.003906-0.011719-0.003906l0.007813-0.09375c0-0.027344 0.023437-0.046875 0.03125-0.074219 0.003906-0.019531-0.003906-0.046875 0.003906-0.066406l0.058594-0.097656c0.007812-0.019532 0.03125-0.019532 0.046875-0.039063 0.007812-0.019531 0.007812-0.039063 0.023437-0.058594l0.097656-0.09375c0.015626-0.007812 0.03125-0.007812 0.046876-0.019531 0.015624-0.007812 0.015624-0.027344 0.03125-0.039062l0.13672-0.070313c0.007813-0.003906 0.019532 0.003906 0.027344-0.003906 0.007812 0 0.015625-0.015625 0.023438-0.019531l0.16406-0.046876c0.007812-0.007812 0.019531 0 0.03125 0 0.015625 0 0.015625-0.019531 0.027344-0.019531l0.18359-0.019531c0.007812 0 0.015624 0.003906 0.019531 0.003906 0.007812-0.003906 0.015625-0.007812 0.023437-0.007812h0.007813l0.18359 0.003906c0.007813 0 0.015626 0.007812 0.027344 0.007812 0.007813 0 0.015625-0.007812 0.023438 0l0.17969 0.027344c0.007813 0 0.015625 0.019532 0.027344 0.019532 0.007813 0.003906 0.023437-0.003907 0.03125 0l0.15625 0.0625c0.007813 0.003906 0.015625 0.019531 0.023437 0.023437 0.007813 0.007813 0.023438 0 0.039063 0.007813l0.10938 0.066406c0.015625 0.007812 0.019531 0.039062 0.03125 0.046875 0.019531 0.019531 0.046875 0.019531 0.066406 0.039062l0.085938 0.09375c0.015625 0.019531 0.007812 0.046875 0.019531 0.066407 0.015625 0.015624 0.039063 0.019531 0.042969 0.039062l0.042968 0.10938c0.007813 0.027344-0.003906 0.058594 0 0.085937 0.003907 0.027344 0.027344 0.046876 0.023438 0.074219l-0.007812 0.10938c0 0.023438-0.023438 0.039063-0.027344 0.066406-0.003906 0.019532 0.003906 0.039063-0.003906 0.0625-0.003907 0.003907-0.015626 0.003907-0.015626 0.007813v0.023437l-0.042968 0.085938c-0.007813 0.019531-0.03125 0.007812-0.042969 0.027344-0.015625 0.019531-0.015625 0.058594-0.039063 0.074218l-0.058593 0.046876 2.3672-0.49219-0.058594-0.007812c-0.003906 0-0.003906-0.007813-0.007812-0.007813-0.015625 0-0.03125 0-0.046875-0.007813l-0.16016-0.058593c-0.007813-0.003907-0.007813-0.019531-0.019531-0.019531-0.015626-0.007813-0.03125-0.007813-0.046876-0.019532l-0.125-0.074218c-0.015624-0.007813-0.015624-0.03125-0.027343-0.046876-0.015625-0.007812-0.03125-0.003906-0.042969-0.019531l-0.089844-0.09375c-0.015625-0.019531-0.007812-0.046875-0.019531-0.066406-0.015625-0.023437-0.042969-0.042969-0.058594-0.074219v-0.019531h-0.007812c0-0.007813 0.003906-0.019531 0-0.019531-0.003907-0.027344 0-0.046875 0-0.066406 0-0.007813-0.003907-0.019532-0.003907-0.019532-0.007812-0.046875-0.039062-0.074218-0.039062-0.11719l0.007812-0.10547c0-0.023438 0.023438-0.042969 0.03125-0.066406 0.003907-0.023438-0.003906-0.046875 0.003907-0.070313l0.058593-0.097656c0.007813-0.027344 0.039063-0.027344 0.050782-0.046875 0.015625-0.019531 0.015625-0.046875 0.03125-0.066406l0.097656-0.085938c0.007812-0.007812 0.023438-0.007812 0.039062-0.015625 0.015626-0.003906 0.015626-0.023437 0.027344-0.03125l0.13672-0.074219c0.007813-0.007812 0.023437 0 0.03125 0 0.007813-0.007812 0.015625-0.023437 0.027344-0.027343l0.16406-0.046875c0.007813-0.007813 0.019531 0 0.03125 0 0.015625 0 0.015625-0.019532 0.027344-0.019532l0.18359-0.019531c0.007812 0 0.015625 0.003907 0.019531 0.003907 0.007812-0.003907 0.015625-0.007813 0.023438-0.007813h0.007812l0.18359 0.003906c0.007812 0 0.015625 0.007813 0.023437 0.007813 0.007813 0 0.019531-0.007813 0.027344 0l0.17969 0.027344c0.015626 0 0.019532 0.019531 0.03125 0.023437 0.015626 0.003906 0.023438-0.003906 0.039063-0.003906l0.14844 0.058593c0.003907 0.007813 0.007813 0.015626 0.015626 0.019532h0.019531c0.007812 0.003906 0.007812 0.019531 0.019531 0.019531 0.007812 0.007813 0.023438 0 0.03125 0.007813l0.10938 0.066406c0.015625 0.007812 0.019531 0.039062 0.03125 0.046875 0.015625 0.019531 0.03125 0.007812 0.046875 0.027343l0.085938 0.09375c0.015624 0.019532 0.007812 0.046876 0.019531 0.066407 0.015625 0.019531 0.039062 0.019531 0.042969 0.039062l0.042968 0.10938c0.007813 0.027344-0.003906 0.058594 0 0.085938s0.027344 0.046875 0.023438 0.074218l-0.007813 0.10938c0 0.023437-0.023437 0.039062-0.027343 0.066406-0.003907 0.019531 0.003906 0.039062-0.003907 0.0625-0.003906 0.003906-0.019531 0.003906-0.019531 0.015625-0.003906 0.007812 0 0.027343-0.003906 0.039062l-0.046875 0.074219c-0.003907 0.019531-0.027344 0.007812-0.039063 0.027344-0.007812 0.015625-0.003906 0.039062-0.023437 0.058594l-0.070313 0.066406 0.76562-0.16016-2.0352-3.2695-0.56641 0.11719 0.097656 0.019531c0.007813 0 0.015625 0.019531 0.027344 0.019531 0.007812 0.003906 0.023437-0.003906 0.03125 0l0.15625 0.0625c0.007812 0.003906 0.015625 0.023438 0.023437 0.023438 0.015625 0.007812 0.023438 0 0.039063 0.007812l0.125 0.074219c0.015625 0.007813 0.015625 0.039063 0.027343 0.046875 0.015626 0.007812 0.03125 0.007812 0.046876 0.019531l0.089843 0.097657c0.019531 0.019531 0.007813 0.046874 0.023438 0.066406 0.015625 0.019531 0.042969 0.027344 0.046875 0.058594l0.039062 0.097656c0.007813 0.027344-0.003906 0.058594-0.003906 0.074218 0 0.027344 0.023438 0.046876 0.023438 0.074219l-0.007813 0.10938c0 0.023438-0.023437 0.039063-0.027344 0.066406-0.003906 0.019532 0.003907 0.039063-0.003906 0.0625-0.003906 0.003907-0.015625 0.003907-0.019531 0.015626-0.003906 0.007812 0 0.019531-0.003906 0.027343-0.003907 0.019531-0.027344 0.007813-0.039063 0.027344-0.015625 0.007813-0.015625 0.027344-0.027344 0.039063-0.019531 0.039062-0.019531 0.074218-0.046875 0.097656l-0.097656 0.09375c-0.015625 0.007812-0.03125 0.007812-0.046875 0.019531-0.007813 0.003906-0.015625 0.019531-0.027344 0.027344l-0.13672 0.074219c-0.015624 0.007812-0.027343 0.007812-0.042968 0.015624-0.003906 0.003907-0.007813 0.015626-0.019532 0.015626l-0.16406 0.058593h-0.050781c0 0.003907-0.003907 0.007813-0.007813 0.007813l-0.18359 0.023437c-0.015624 0.003907-0.027343 0.003907-0.042968 0.003907-0.019532 0-0.039063 0-0.0625-0.007813h-0.125c-0.023438 0-0.046875 0-0.070313-0.003906l-0.17969-0.039063c-0.003906-0.003906-0.003906-0.003906-0.007813-0.003906-0.007812-0.003906-0.023437 0-0.039062-0.007812l-0.15625-0.058594c-0.007813 0-0.015625-0.019532-0.023438-0.019532-0.019531-0.007812-0.039062-0.007812-0.050781-0.019531l-0.125-0.085937c-0.007812-0.007813-0.007812-0.027344-0.023438-0.039063-0.015624-0.007812-0.027343-0.003906-0.039062-0.019531l-0.089844-0.09375c-0.023437-0.019531-0.019531-0.058594-0.03125-0.085938-0.007812-0.019531-0.03125-0.007812-0.039062-0.027343-0.003906-0.007813 0-0.023438 0-0.039063-0.003906-0.007812-0.019532 0-0.023438-0.007812 0-0.007813 0.003906-0.019532 0-0.027344-0.003906-0.019531 0-0.039062-0.003906-0.066406-0.015625-0.046875-0.042969-0.085938-0.039062-0.12891l0.007812-0.10938c0-0.027343 0.027344-0.058593 0.039062-0.085937 0.003907-0.019531-0.003906-0.046875 0.007813-0.066406l0.0625-0.097657c0.007813-0.019531 0.027344-0.019531 0.042969-0.039062 0.015625-0.007812 0.007812-0.03125 0.023437-0.046875l0.089844-0.085937-2.4336 0.50781 0.10547 0.019531c0.007812 0.003907 0.007812 0.015625 0.019531 0.019531 0.007813 0 0.015625-0.007812 0.023438 0l0.15625 0.058594c0.015625 0 0.019531 0.019532 0.03125 0.027344 0.015625 0.007812 0.027343 0 0.042969 0.007812l0.125 0.085938c0.007812 0.007812 0.007812 0.023438 0.023437 0.039062 0.007813 0.007813 0.027344 0 0.039063 0.007813l0.089843 0.09375c0.015625 0.019531 0.007813 0.046875 0.023438 0.070313 0.015625 0.023437 0.039062 0.023437 0.046875 0.050781l0.042968 0.097656c0.007813 0.027344-0.003906 0.058594 0 0.085937 0.003907 0.027344 0.027344 0.050782 0.023438 0.085938l-0.007812 0.10938c0 0.039063-0.03125 0.066406-0.050782 0.097656v0.007813c-0.003906 0.015625 0.003906 0.027344-0.003906 0.046875l-0.042969 0.074219c-0.007812 0.019531-0.03125 0.019531-0.042969 0.027343-0.015624 0.023438-0.015624 0.058594-0.03125 0.074219l-0.097656 0.09375c-0.015625 0.007812-0.03125 0.007812-0.046875 0.019531-0.007812 0.003907-0.015625 0.019531-0.027343 0.027344l-0.13672 0.074219c-0.015625 0.007812-0.03125 0.007812-0.050781 0.019531-0.007813 0-0.007813 0.007813-0.019532 0.007813l-0.16406 0.046874c-0.015625 0.007813-0.027344 0.007813-0.042969 0.007813l-0.003906 0.003906-0.17969 0.023438h-0.046875-0.015625-0.015625-0.007812-0.15625-0.003906c-0.015626 0-0.03125-0.003907-0.046876-0.007813l-0.17969-0.027344c-0.003906-0.003906-0.003906-0.007812-0.007813-0.007812-0.015624 0-0.027343 0-0.046874-0.007812l-0.15625-0.058594c-0.007813 0-0.015626-0.019532-0.023438-0.019532-0.019531-0.007812-0.039062-0.007812-0.050781-0.019531l-0.125-0.085937c-0.015625-0.007813-0.015625-0.027344-0.023438-0.042969-0.015625-0.007813-0.03125-0.003906-0.042969-0.015625l-0.089843-0.097656c-0.019531-0.019532-0.015625-0.046875-0.023438-0.070313-0.003906-0.015625-0.027343-0.003906-0.03125-0.023437-0.003906-0.007813 0-0.027344 0-0.039063-0.007812-0.019531-0.027343-0.03125-0.03125-0.058593-0.003906-0.019532 0.007813-0.046876 0.003907-0.066407v-0.007812c-0.007813-0.03125-0.039063-0.0625-0.039063-0.097657l0.003906-0.097656c0-0.039062 0.027344-0.058594 0.039063-0.09375 0.003906-0.023437 0-0.050781 0.007812-0.074218l0.0625-0.097657c0.007813-0.019531 0.027344-0.019531 0.042969-0.039062 0.015625-0.007813 0.007813-0.03125 0.023437-0.046875l0.09375-0.085938-0.88281 0.18359 2.0352 3.2617 0.61719-0.12891z"/>
  <path d="m327.43 372.52-0.10547 0.035156-0.09375 0.054688-0.089843 0.074219-0.0625 0.082031-0.03125 0.078125v0.015625l0.0625 0.011719 0.097656-0.003907 0.10156-0.035156 0.097656-0.054687 0.089844-0.078126 0.058593-0.078124 0.03125-0.074219 0.003907-0.023438-0.066407-0.007812z"/>
  <path d="m331.03 371.76-0.097656 0.039062-0.10156 0.058594-0.082031 0.074219-0.0625 0.082031-0.03125 0.074219-0.003906 0.019531 0.066406 0.007813 0.09375-0.003907 0.097656-0.03125 0.10547-0.066406 0.085937-0.066406 0.0625-0.082031 0.027344-0.074219 0.003906-0.03125-0.066406-0.003907z"/>
  <path d="m215.21 405.7-31.816 18.379 16.211 9.3594 31.82-18.367z"/>
  <path d="m327.06 375.55-0.09375-0.007813c-0.003906 0-0.007812-0.007813-0.019531-0.007813-0.023438-0.007812-0.050781-0.007812-0.074219-0.019531l-0.14062-0.066406c-0.019531-0.007813-0.023437-0.039063-0.042969-0.046875-0.019531-0.007812-0.042968-0.007812-0.058594-0.019531l-0.10547-0.097657c-0.019532-0.019531-0.015625-0.050781-0.027344-0.074218-0.007812-0.007813-0.027344-0.007813-0.039062-0.019532l-0.050782-0.097656-0.007812-0.007812c-0.007813-0.019532 0-0.046875-0.007813-0.066406-0.007812-0.023438-0.03125-0.039063-0.039062-0.066407l-0.023438-0.14062c0-0.023437 0.015625-0.03125 0.015625-0.050781s-0.019531-0.039063-0.015625-0.058594l0.023438-0.15625c0-0.019531 0.019531-0.027343 0.023437-0.046875 0.003906-0.019531-0.003906-0.027344 0-0.046875l0.070313-0.15625c0.003906-0.019531 0.019531-0.019531 0.027343-0.027343 0.003907-0.015626 0-0.027344 0.007813-0.042969l0.10547-0.14062c0.007812-0.007813 0.027344-0.007813 0.039062-0.023438 0.007813-0.015625 0.003906-0.027344 0.019532-0.039062l0.14062-0.11719c0.003907-0.003906 0.019532-0.003906 0.027344-0.003906 0.003906-0.007812 0.003906-0.019531 0.015625-0.027344l0.16016-0.097656c0.007812-0.003906 0.027343 0 0.042968-0.003906 0.015625-0.007813 0.019532-0.027344 0.03125-0.027344l0.089844-0.027344c-0.015625 0-0.027344-0.003906-0.042969-0.007812l-0.16016-0.027344c-0.007813 0-0.007813-0.007812-0.019531-0.007812-0.023438-0.007813-0.046875-0.003907-0.066406-0.019532l-0.14063-0.066406c-0.015624 0-0.015624-0.019531-0.027343-0.027344-0.015625-0.007812-0.039063-0.007812-0.050781-0.019531l-0.027344-0.027344c-0.003906 0-0.003906 0-0.003906-0.007812h-0.015626l-0.082031-0.074219c-0.019531-0.019531-0.019531-0.058594-0.03125-0.074219-0.007812-0.019531-0.03125-0.007812-0.042969-0.027343l-0.058593-0.10938c-0.003907-0.015624 0.003906-0.027343 0-0.046874-0.007813-0.027344-0.039063-0.046876-0.042969-0.074219l-0.023438-0.14844c-0.003906-0.019531 0.015626-0.039062 0.015626-0.058593 0-0.019532-0.015626-0.039063-0.015626-0.058594l0.023438-0.14844c0-0.019531 0.019531-0.027344 0.023438-0.046875 0.003906-0.019531-0.003907-0.03125 0-0.046875l0.070312-0.15625c0.003906-0.019531 0.019531-0.019531 0.027344-0.027344 0.003906-0.015624 0-0.027343 0.007812-0.042968l0.10547-0.14062c0.007813-0.007813 0.023437-0.007813 0.03125-0.019531 0.003906-0.007813 0.003906-0.019532 0.007813-0.019532l-0.50391 0.097656v5.1523l0.69141-0.14844-0.089844-0.039063c-0.019532-0.007812-0.023438-0.039062-0.042969-0.046875-0.019531-0.007812-0.042969-0.007812-0.058594-0.019531l-0.10547-0.097656c-0.019531-0.019532-0.015624-0.050782-0.027343-0.074219-0.007813-0.007813-0.027344-0.007813-0.039063-0.019531l-0.058594-0.10938c-0.007812-0.007813 0-0.027344-0.003906-0.046875-0.015625-0.027344-0.042968-0.046875-0.046875-0.085938l-0.023437-0.14844c-0.003906-0.019531 0.015625-0.03125 0.015625-0.058594 0-0.019531-0.015625-0.027344-0.015625-0.046875l0.023437-0.15625c0-0.019531 0.019531-0.027344 0.023438-0.046875 0.003906-0.019531-0.003907-0.027344 0-0.046875l0.070312-0.15625c0.003907-0.019531 0.019531-0.019531 0.027344-0.027344 0.007813-0.015625 0-0.027344 0.007813-0.042968l0.10547-0.14063c0.007813-0.007812 0.027344-0.007812 0.039063-0.023437 0.007812-0.015625 0.003906-0.027344 0.019531-0.039063l0.14062-0.11719c0.007813-0.003906 0.019531-0.003906 0.027344-0.015625 0.007812 0 0.007812-0.019531 0.019531-0.023438l0.16016-0.09375c0.007813-0.003906 0.027344 0 0.039063-0.003906 0.039062 0.007813 0.039062 0 0.050781-0.011718z"/>
  <path d="m365.12 373.25c0.0625-0.019531 0.125-0.039062 0.1875-0.019531 0.003906 0 0.003906 0.007813 0.007812 0.007813h0.003907c0.007812 0 0.019531 0.007812 0.027343 0.019531 0.015626 0 0.023438-0.007813 0.039063-0.003907 0.027344 0.007813 0.039063 0.042969 0.0625 0.050782 0.027344 0.019531 0.066406 0.015625 0.089844 0.039062l0.050781 0.058594v-0.55469l-0.47656 0.40625c0-0.003906 0.007812-0.003906 0.007812-0.003906z"/>
  <path d="m359.07 377.25-0.074219-0.09375-0.09375-0.070312-0.042969-0.019532 0.023438 0.050782 0.054687 0.097656 0.085938 0.09375 0.089844 0.074218 0.039062 0.023438-0.019531-0.054688z"/>
  <path d="m360.56 374.6c-0.023438-0.023437-0.023438-0.050781-0.039063-0.082031-0.007812-0.007812-0.03125-0.007812-0.042969-0.023437l-0.046874-0.085938c-0.003907-0.003906 0-0.015625-0.003907-0.023437v-0.007813-0.019531-0.007813c-0.015625-0.027343-0.042969-0.046874-0.046875-0.085937l-0.003906-0.027344c0-0.007812 0.003906-0.007812 0.003906-0.019531 0 0-0.007812-0.003906-0.007812-0.007812l-0.003906-0.074219s0.003906-0.003907 0.003906-0.007813l-0.003906-0.007812v-0.007813c0-0.023437 0.019531-0.039062 0.023437-0.058593 0.003906-0.023438-0.007813-0.042969 0-0.066407l0.039063-0.097656c0.003906-0.027344 0.03125-0.039063 0.042968-0.058594 0.015625-0.019531 0.003906-0.046875 0.023438-0.066406l0.085937-0.09375c0.007813-0.019531 0.03125-0.015625 0.046875-0.027344 0.015625-0.007812 0.015625-0.03125 0.03125-0.046875l0.125-0.074218c0.007813-0.007813 0.023438 0 0.039063-0.007813 0.007812 0 0.015625-0.019531 0.023437-0.023437l0.15625-0.0625h0.027344c0.007812 0 0.015625-0.015626 0.023438-0.019532l0.17578-0.039062c0.015625 0 0.023437 0.007812 0.03125 0.007812 0.007812 0 0.019531-0.015625 0.027343-0.015625l0.1875-0.003906c0.007813 0 0.015626 0.007813 0.023438 0.007813s0.015625-0.007813 0.023438-0.007813l0.18359 0.019531c0.007813 0 0.019531 0.019532 0.03125 0.019532 0.007813 0 0.023438-0.007813 0.03125 0l0.16406 0.046874c0.007812 0.003907 0.015625 0.019532 0.023437 0.019532 0.007813 0.007812 0.019531 0 0.027344 0.003906l0.13672 0.070312c0.015625 0.007813 0.019531 0.027344 0.03125 0.039063 0.015625 0.007813 0.03125 0 0.042968 0.007813l0.10547 0.09375c0.015625 0.019531 0.015625 0.039062 0.023438 0.058593 0.015625 0.019531 0.039062 0.019531 0.046875 0.039063l0.0625 0.097656c0.015625 0.019531 0 0.046875 0.007812 0.066406 0.007813 0.03125 0.039063 0.058594 0.039063 0.085938l0.007812 0.10938c0 0.027343-0.019531 0.058593-0.023437 0.085937 0 0.019532 0.015625 0.042969 0.003906 0.066406l-0.023438 0.066407-0.007812 0.039062c-0.007812 0.027344-0.039062 0.046875-0.050781 0.066407-0.007813 0.019531-0.003907 0.039062-0.019531 0.058593l-0.085938 0.09375c-0.007812 0.019531-0.03125 0.007813-0.042969 0.027344-0.015625 0.007813-0.015625 0.039063-0.03125 0.046875l-0.125 0.074219c-0.015625 0.007812-0.027343 0.007812-0.042969 0.019531-0.007812 0-0.007812 0.007812-0.019531 0.019531l-0.15625 0.058594c-0.007812 0.007813-0.019531 0.003906-0.027343 0.007813-0.003907 0-0.003907 0.003906-0.007813 0.007812h-0.035156-0.023438-0.003906l-0.14062 0.027344h-0.039062l-0.1875 0.007812h-0.019532-0.027344l0.50391 0.19531 3.4141-2.9141-3.9922-1.5547 0.0625 0.050781c0.003906 0.003906 0.003906 0.023438 0.007812 0.023438 0.003906 0.007812 0.019532 0.007812 0.023438 0.019531l0.019531 0.019531c0.007813 0.007812 0.003906 0.027344 0.007813 0.039062 0.003906 0.007813 0.023437 0.007813 0.027343 0.019532l0.042969 0.085937c0.007812 0.019531 0 0.046875 0.003906 0.066407 0.007813 0.019531 0.027344 0.039062 0.03125 0.058593l0.015625 0.10938c0.003907 0.039063-0.019531 0.066406-0.027343 0.097656v0.007813c0 0.019531 0.015624 0.039063 0.003906 0.058594l-0.003906 0.027343-0.003907 0.019532-0.003906 0.007812v0.007813l-0.015625 0.039062c-0.003906 0.019531-0.027344 0.019531-0.039062 0.027344-0.015626 0.027344-0.003907 0.058594-0.027344 0.085937l-0.085938 0.09375c-0.007812 0.019532-0.027344 0.007813-0.042968 0.023438-0.015626 0.015625-0.015626 0.03125-0.027344 0.042969l-0.125 0.070312c-0.015625 0.015625-0.03125 0.007813-0.046875 0.019531-0.007813 0.003907-0.015625 0.019532-0.023438 0.019532l-0.082031 0.039062-0.066406 0.023438c-0.019532 0.003906-0.039063 0.003906-0.058594 0.015625-0.003906 0-0.003906 0.003906-0.015625 0.007812l-0.17969 0.027344c-0.015626 0.003906-0.027344 0.003906-0.039063 0.003906-0.003906 0-0.003906 0.003907-0.003906 0.003907l-0.18359 0.007812h-0.019531c-0.015625 0-0.027344 0-0.042969-0.003906l-0.18359-0.023438s-0.003906 0-0.003906-0.003906c-0.015625-0.003906-0.027344-0.003906-0.042969-0.003906l-0.16406-0.046875c-0.003906 0-0.007813-0.007813-0.019532-0.019531-0.015624 0-0.03125 0-0.046874-0.007813l-0.14063-0.074219c-0.015624-0.007812-0.015624-0.023437-0.027343-0.027344-0.015625-0.007812-0.027344-0.007812-0.042969-0.019531l-0.097656-0.09375c-0.023438-0.019531-0.019532-0.046875-0.039063-0.066406-0.007812-0.019531-0.03125-0.007813-0.042969-0.027344l-0.046874-0.085937-0.007813-0.007813c-0.007813-0.027343 0-0.046875-0.007813-0.066406-0.007812-0.027344-0.03125-0.046875-0.039062-0.074219l-0.015625-0.10938c-0.003906-0.027343 0.019531-0.046875 0.019531-0.082031 0-0.027344-0.015625-0.050781-0.003906-0.082031l0.039062-0.10938c0.003907-0.019532 0.03125-0.027344 0.046876-0.058594 0.007812-0.019531 0.003906-0.046875 0.023437-0.066406l0.089844-0.09375c0.007812-0.019532 0.027343-0.007813 0.042969-0.023438 0.007812-0.015625 0.007812-0.03125 0.023437-0.042968l0.125-0.085938h0.039063c0.007812-0.007812 0.015624-0.027344 0.027343-0.027344l0.15234-0.066406c0.007813 0 0.023437 0.007812 0.039063 0 0.007812 0 0.019531-0.019531 0.027343-0.019531l0.17969-0.027344c0.007812-0.007813 0.015625 0 0.023437 0 0.007813 0 0.019532-0.007813 0.027344-0.007813l0.18359-0.003906h0.007812c0.003906 0 0.007813 0.003906 0.019532 0.003906h0.019531 0.070312l-0.55469-0.21484-3.4141 2.9219z"/>
  <path d="m361.57 375.76-5.2539-2.0508v5.1094l5.2539 2.0469zm-1.6992 1.9492c0 0.019531-0.023438 0.039062-0.027344 0.058593s0.003906 0.039063 0 0.058594l-0.050781 0.097656v0.003907s-0.003907 0-0.007813 0.003906c-0.007812 0.019531-0.03125 0.023437-0.046875 0.042968-0.015625 0.027344-0.015625 0.066407-0.042969 0.085938l-0.097656 0.085938c-0.019531 0.019531-0.042968 0.007812-0.0625 0.023437-0.015625 0.015625-0.019531 0.03125-0.042968 0.042969l-0.11719 0.046875c-0.03125 0.007812-0.070312 0.019531-0.10938 0.019531h-0.003906l-0.14844 0.007812h-0.007812c-0.03125 0-0.0625-0.007812-0.09375-0.019531l-0.15234-0.039062c-0.007813 0-0.007813-0.007813-0.019531-0.019531-0.019532 0-0.039063 0-0.050782-0.007813l-0.15234-0.082031c-0.007813-0.003906-0.015625-0.023438-0.023438-0.023438-0.007812-0.007812-0.027343-0.007812-0.039062-0.019531l-0.14062-0.10938c-0.007813-0.007812-0.007813-0.027344-0.019532-0.03125-0.003906-0.003906-0.019531-0.003906-0.027343-0.015625l-0.125-0.13672c-0.007813-0.015625-0.003907-0.027344-0.007813-0.039062-0.003906-0.007813-0.015625-0.007813-0.019531-0.015625l-0.097656-0.15625c-0.003907-0.015625 0-0.023438-0.003907-0.03125-0.003906-0.015625-0.023437-0.019531-0.027343-0.039063l-0.058594-0.16406c0-0.007813 0.003906-0.019532 0.003906-0.027344-0.003906-0.019531-0.015625-0.019531-0.019531-0.039062l-0.023438-0.15625c0-0.019532 0.007813-0.027344 0.007813-0.046876 0-0.019531-0.015625-0.027343-0.007813-0.046874 0-0.007813 0.015626-0.019532 0.015626-0.027344 0-0.007813-0.007813-0.023438-0.003907-0.039063l0.019531-0.097656c0-0.019531 0.019532-0.023437 0.023438-0.039063 0.003906-0.019531-0.003906-0.039062 0-0.046874l0.058594-0.11719c0.015625-0.027344 0.042968-0.039062 0.0625-0.058594 0.015625-0.019531 0.007812-0.046875 0.03125-0.066406l0.097656-0.085938c0.015625-0.007812 0.027344-0.007812 0.042969-0.019531 0.015625-0.007812 0.015625-0.027343 0.03125-0.03125 0.007812-0.003906 0.023437 0.003907 0.03125-0.003906 0.007812-0.003906 0.019531-0.019531 0.03125-0.023437 0 0 0-0.003907 0.003906-0.003907l0.097656-0.03125c0.015625-0.003906 0.03125 0.003907 0.050781 0.003907 0.019532-0.003907 0.027344-0.019532 0.046876-0.023438l0.14062-0.003906c0.023438 0 0.03125 0.019531 0.050782 0.019531 0.019531 0 0.03125-0.007813 0.050781-0.007813l0.15234 0.046876c0.015625 0 0.019531 0.019531 0.03125 0.019531 0.007812 0.007812 0.023437 0 0.039062 0.007812l0.15234 0.074219c0.015625 0.007812 0.015625 0.019531 0.023437 0.027344 0.007813 0.007812 0.023438 0 0.03125 0.007812l0.14844 0.11719c0.015625 0.007812 0.007812 0.019531 0.019531 0.027344 0.007813 0.007812 0.023438 0.007812 0.03125 0.019531l0.11719 0.14844c0.003906 0.007813 0 0.019532 0.003906 0.023438s0.015625 0.003906 0.019531 0.015625l0.097656 0.15625c0.007813 0.015625 0 0.027343 0.003907 0.039062 0.003906 0.019531 0.019531 0.019531 0.023437 0.027344l0.0625 0.16406c0.003906 0.019531-0.003906 0.027343 0 0.046874 0 0.007813 0.019532 0.019532 0.019532 0.039063l0.015624 0.10938v0.003906c0 0.023438-0.015624 0.03125-0.015624 0.058594 0 0.023438 0.023437 0.042969 0.019531 0.070312z"/>
  <path d="m362.28 375.68v0.0625l0.058594-0.10938z"/>
  <path d="m360.81 293.39-164.76 95.121 164.76 95.133 164.76-95.133zm-27.906 83.09c0 0.039063-0.027344 0.058594-0.039063 0.09375-0.015625 0.046876-0.019531 0.085938-0.050781 0.11719s-0.066406 0.058594-0.10938 0.074219c-0.03125 0.019531-0.046875 0.058593-0.085937 0.0625l-6.7734 1.4062c-0.023438 0.003906-0.046875 0.003906-0.070312 0.003906-0.089844 0-0.17188-0.039063-0.23047-0.09375-0.015625-0.019531-0.023438-0.039063-0.03125-0.058594-0.007813-0.007812-0.027344-0.003906-0.03125-0.019531l-2.4375-3.9023c-0.019531-0.039062-0.007813-0.066406-0.019531-0.097656-0.007813-0.03125-0.039063-0.058594-0.039063-0.09375v-5.8711c0-0.007812 0.015625-0.019531 0.019531-0.039062 0-0.039063 0.015625-0.058594 0.027344-0.09375 0.015625-0.027344 0.023438-0.058594 0.042969-0.085938 0.015625-0.019531 0.03125-0.039062 0.050781-0.050781 0.007812-0.007813 0.007812-0.023437 0.023438-0.03125 0.019531-0.019531 0.042968-0.003906 0.066406-0.007813 0.019531-0.007812 0.027344-0.039062 0.050781-0.039062l6.7734-1.4062c0.027344-0.007812 0.046876 0.007812 0.074219 0.007812 0.046875 0 0.085938 0.007813 0.125 0.027344 0.046875 0.019532 0.082031 0.042969 0.11328 0.082032 0.015626 0.015624 0.042969 0.023437 0.058594 0.042968l2.4375 3.9062c0.015625 0.023438 0.003906 0.042969 0.007813 0.066406 0.007812 0.023438 0.027343 0.03125 0.03125 0.050782 0.003906 0.019531-0.003907 0.027344-0.003907 0.039062 0 0.019532 0.015626 0.019532 0.015626 0.039063l-0.003907 5.8711zm45.855 55.062v2.7461c0 0.38672-0.31641 0.71094-0.71094 0.71094h-36.453c-0.39453 0-0.71094-0.32031-0.71094-0.71094v-14.926c0-0.38672 0.31641-0.69922 0.71094-0.69922h36.453c0.39453 0 0.71094 0.3125 0.71094 0.69922zm-23.129-58.473c0.007813-0.023437 0.039063-0.03125 0.050782-0.050781 0.015624-0.027344 0.019531-0.058594 0.042968-0.074219 0.003906-0.007812 0-0.007812 0.003906-0.019531l4.0273-3.4414c0.015625-0.015625 0.03125-0.007813 0.046875-0.019531 0.042969-0.027344 0.085938-0.039063 0.13672-0.046876 0.042969 0 0.082031-0.007812 0.125 0 0.019531 0.007813 0.039062-0.007812 0.058594 0l5.9688 2.3281c0.023437 0.007812 0.03125 0.039062 0.050781 0.046874 0.023437 0.019532 0.050781 0.019532 0.074219 0.046876h0.007812c0.015625 0.019531 0.007813 0.039062 0.019532 0.058593 0.023437 0.039063 0.03125 0.066407 0.042968 0.10938 0.003906 0.027344 0.027344 0.042969 0.027344 0.066406v5.8711c0 0.007813-0.003906 0.007813-0.003906 0.019532 0 0.046874-0.027344 0.085937-0.050782 0.11719-0.019531 0.046875-0.023437 0.09375-0.058593 0.11719-0.003907 0.003907 0 0.007813-0.003907 0.015626l-4.0273 3.4375c-0.066407 0.066406-0.14844 0.09375-0.23047 0.09375-0.042969 0-0.089844-0.007813-0.12891-0.027344l-5.9688-2.3242c-0.023438-0.007813-0.03125-0.039063-0.050782-0.046875-0.042968-0.027344-0.070312-0.058594-0.097656-0.09375-0.027344-0.039062-0.039062-0.074219-0.050781-0.11719-0.003906-0.027343-0.027344-0.046874-0.027344-0.074218v-5.8711s0.003907-0.003906 0.003907-0.007812c0-0.023438 0.015624-0.039063 0.019531-0.066407-0.003907-0.015625-0.011719-0.035156-0.007813-0.046875zm23.418-18.211c0 0.38672-0.31641 0.71094-0.71094 0.71094h-36.453c-0.39453 0-0.71094-0.32031-0.71094-0.71094v-14.93c0-0.38672 0.31641-0.69922 0.71094-0.69922h36.453c0.39453 0 0.71094 0.3125 0.71094 0.69922z"/>
  <path d="m342.3 432.25h35.031v1.3203h-35.031z"/>
  <path d="m342.3 420.07h35.031v10.766h-35.031z"/>
  <path d="m403.87 466.71 31.824 18.371 16.211-9.3633-31.816-18.371z"/>
  <path d="m384.71 477.78 31.816 18.371 16.219-9.3633-31.824-18.371z"/>
  <path d="m236.05 416.86-31.816 18.371 16.219 9.3633 31.816-18.371z"/>
  <path d="m330.67 374.81-0.10547-0.019532c-0.007812 0-0.007812-0.007812-0.019531-0.007812-0.023437-0.007812-0.046875-0.007812-0.070313-0.019531l-0.13672-0.066407c-0.015625-0.007812-0.019532-0.027343-0.03125-0.039062-0.019532-0.007812-0.039063-0.007812-0.058594-0.019531l-0.10547-0.097657c-0.019531-0.019531-0.015625-0.046874-0.03125-0.066406-0.007812-0.019531-0.03125-0.007812-0.039062-0.027344l-0.0625-0.10937v-0.007813h-0.003907c-0.003906-0.019531 0-0.039063-0.003906-0.058594-0.007812-0.023437-0.03125-0.039062-0.039062-0.066406l-0.023438-0.14844c-0.003906-0.019532 0.015625-0.039063 0.015625-0.058594 0-0.019532-0.015625-0.039063-0.015625-0.058594l0.023438-0.15625c0-0.019531 0.019531-0.027344 0.023437-0.039062 0.003907-0.019532-0.003906-0.039063 0-0.058594l0.070313-0.15234c0.003906-0.015625 0.019531-0.015625 0.027344-0.023438 0.007812-0.019531 0-0.027343 0.007812-0.042968l0.10547-0.14062c0.007812-0.007813 0.023437-0.007813 0.03125-0.019531 0.007812-0.007813 0.003906-0.027344 0.015625-0.039063l0.13672-0.11719c0.007813-0.007813 0.027344-0.007813 0.039063-0.019532 0.015625-0.007812 0.015625-0.019531 0.027344-0.027344l0.16406-0.09375c0.007813-0.007812 0.023438 0 0.03125-0.007812 0.007813 0 0.015625-0.019531 0.023438-0.019531l0.10547-0.039063h-0.042969l-0.16406-0.027344c-0.003906 0-0.007812-0.007812-0.019531-0.007812-0.027344-0.003906-0.058594-0.003906-0.082031-0.019531l-0.13672-0.066407c-0.015625-0.007812-0.019531-0.027343-0.03125-0.039062-0.019531-0.007812-0.039063-0.007812-0.058594-0.019531l-0.10547-0.097657c-0.019531-0.019531-0.015624-0.046874-0.03125-0.066406-0.007812-0.019531-0.03125-0.007812-0.039062-0.027344l-0.0625-0.10937v-0.007813h-0.003906c-0.003906-0.019531 0-0.039063-0.003906-0.058594-0.007813-0.023437-0.03125-0.039062-0.039063-0.066406l-0.023437-0.14844c-0.003907-0.019532 0.015624-0.039063 0.015624-0.058594 0-0.019532-0.015624-0.039063-0.015624-0.058594l0.023437-0.15625c0-0.019531 0.019531-0.027344 0.023437-0.039062 0.003907-0.019532-0.003906-0.039063 0-0.058594l0.070313-0.15234c0.003906-0.015625 0.019531-0.015625 0.027344-0.023438 0.007812-0.019531 0-0.027343 0.007812-0.042968l0.10547-0.14062c0.007812-0.007813 0.023438-0.007813 0.03125-0.019531 0.003906-0.007813 0.003906-0.019532 0.007812-0.019532l-2.2734 0.47266 0.015625 0.007813c0.015625 0.003906 0.019531 0.027344 0.03125 0.039063 0.015625 0.007812 0.039062 0 0.050781 0.019531l0.082031 0.066406 0.023438 0.019531c0.019531 0.019532 0.015625 0.039063 0.027344 0.058594 0.003906 0.007812 0.019531 0.007812 0.023437 0.019531l0.015625 0.019531c0.003906 0.007813 0.019532 0.015626 0.027344 0.027344l0.066406 0.12891c0.007813 0.019532 0 0.039063 0 0.058594 0.003906 0.019532 0.023438 0.027344 0.027344 0.046875l0.023438 0.14844c0.003906 0.019531-0.015626 0.039062-0.015626 0.058593 0 0.019532 0.015626 0.027344 0.015626 0.050782l-0.023438 0.15625c0 0.015625-0.019531 0.023437-0.023438 0.042968-0.003906 0.019532 0.003907 0.027344 0 0.046876l-0.066406 0.14844c-0.003906 0.019531-0.023437 0.007813-0.027344 0.019531-0.007812 0.019532-0.003906 0.042969-0.015624 0.058594l-0.082032 0.10938c-0.003906 0-0.007812 0-0.015625 0.003906-0.003906 0.003907 0 0.015625-0.003906 0.015625l-0.03125 0.039063c-0.003906 0.007812-0.015625 0.003906-0.019531 0.007812-0.003906 0.007813-0.003906 0.019531-0.007813 0.019531l-0.13672 0.12891c-0.007812 0.007812-0.023437 0.007812-0.039062 0.015625-0.007812 0.003906-0.007812 0.023437-0.023438 0.03125l-0.16016 0.09375c-0.015625 0.007812-0.03125 0-0.046875 0.007812-0.007812 0.003906-0.015625 0.019532-0.023437 0.019532l-0.11719 0.039062c0.007813 0 0.015625 0.007812 0.023438 0.007812 0.015625 0 0.023437-0.007812 0.042968-0.007812l0.16016 0.019531c0.019531 0.007813 0.027343 0.027344 0.046875 0.027344 0.019531 0.007813 0.039062 0 0.050781 0.007813l0.13672 0.066406c0.019531 0.007812 0.023437 0.027344 0.039062 0.039062 0.019532 0.015625 0.039063 0.007813 0.058594 0.023438l0.082031 0.082031c0.003907 0.007813 0.003907 0.019531 0.007813 0.027344 0.003906 0.007812 0.019531 0.007812 0.027344 0.019531l0.015624 0.019531s0 0.007813 0.003907 0.019531c0.007812 0.007813 0.03125 0.019532 0.042969 0.039063l0.066406 0.12891c0.007812 0.019531 0 0.039063 0 0.058594 0.003906 0.019531 0.023437 0.027344 0.027344 0.046875l0.023437 0.14844c0 0.019531-0.015625 0.03125-0.015625 0.046874 0 0.019532 0.019531 0.039063 0.015625 0.058594l-0.019531 0.13672c0 0.019531-0.015625 0.027344-0.019532 0.039063 0 0.007812 0.003907 0.019531 0.003907 0.03125l-0.003907 0.015624c0 0.007813-0.007812 0.007813-0.007812 0.007813v0.019531l-0.066406 0.14844c-0.003906 0.019531-0.027344 0.007812-0.03125 0.027344-0.007813 0.019531-0.003906 0.039062-0.019532 0.058593l-0.015624 0.019531-0.089844 0.11719c-0.007813 0.007812-0.023438 0.007812-0.03125 0.019531-0.007813 0.007813-0.003906 0.027344-0.019532 0.039063l-0.13672 0.11719c-0.007813 0.007813-0.023438 0.007813-0.03125 0.019531-0.007813 0.007813-0.007813 0.019532-0.019532 0.027344l-0.16016 0.09375c-0.015625 0.007813-0.03125 0-0.046875 0.007813-0.003906 0-0.003906 0.007812-0.007812 0.007812l0.09375 0.007813c0.019531 0.007812 0.027343 0.027344 0.046875 0.027344 0.019531 0.007812 0.039062 0 0.050781 0.007812l0.13672 0.066406c0.019531 0.007813 0.023437 0.027344 0.039062 0.039063 0.019532 0.015625 0.039063 0.007812 0.058594 0.023437l0.070312 0.070313 0.023438 0.019531c0.007812 0.007812 0.007812 0.019531 0.015625 0.027344 0 0.003906 0.007813 0 0.015625 0.007812l0.015625 0.019532c0.003906 0.003906 0 0.015624 0.003906 0.019531 0.007813 0.019531 0.027344 0.019531 0.039063 0.039062l0.066406 0.11719c0.007812 0.019531 0 0.039062 0.003906 0.0625 0.007813 0.023437 0.027344 0.03125 0.03125 0.050781l0.023438 0.14844c0.003906 0.019531-0.015625 0.039062-0.015625 0.058593s0.015625 0.027344 0.015625 0.050781l-0.023438 0.15625c0 0.015626-0.019531 0.023438-0.023437 0.042969-0.003907 0.015625 0.003906 0.027344 0 0.042969l-0.066407 0.15625c-0.003906 0.015625-0.023437 0.003906-0.027343 0.023438-0.007813 0.019531 0 0.039062-0.015625 0.058593l-0.10938 0.14844c-0.007813 0.007812-0.023438 0.003906-0.03125 0.015625-0.007813 0.015625-0.003907 0.023437-0.019531 0.03125l-0.050782 0.046875 2.4219-0.49609-0.085937-0.039063c-0.019532-0.007812-0.023438-0.027343-0.042969-0.046874-0.019531-0.007813-0.042969-0.007813-0.0625-0.019532l-0.097656-0.09375v-0.007812c-0.019531-0.019532-0.015625-0.046875-0.027344-0.066406-0.007813-0.007813-0.03125-0.007813-0.042969-0.019532l-0.0625-0.10938c-0.003906-0.007812 0-0.019531 0-0.027343 0-0.007813-0.015625-0.007813-0.015625-0.007813-0.003906-0.019531 0-0.039063 0-0.046875-0.007812-0.019531-0.027343-0.039062-0.03125-0.058594l-0.023437-0.14062c0-0.023437 0.015625-0.03125 0.015625-0.050781s-0.019531-0.039062-0.015625-0.058594l0.023437-0.15625c0-0.019531 0.019531-0.027344 0.023438-0.046875 0.003906-0.019531-0.003907-0.027343 0-0.046875l0.070312-0.15625c0.003907-0.019531 0.019531-0.019531 0.027344-0.027344 0.003906-0.015624 0-0.027343 0.007813-0.042968l0.10547-0.14062c0.007813-0.007813 0.023438-0.007813 0.03125-0.019531 0.007813-0.007813 0.003906-0.027344 0.015625-0.039063l0.13672-0.11719c0.007812-0.007813 0.027344-0.007813 0.039062-0.019532 0.015626-0.007812 0.015626-0.019531 0.027344-0.027344l0.16406-0.09375c0.007812-0.007812 0.023437 0 0.03125-0.007812 0.023437-0.027344 0.023437-0.035156 0.035156-0.035156z"/>
  <path d="m327.43 376.19-0.10547 0.027344-0.10156 0.066406-0.082031 0.0625-0.0625 0.082031-0.03125 0.074219v0.027344l0.054687 0.007812 0.10156-0.011718 0.10547-0.03125 0.10156-0.058594 0.082031-0.070313 0.0625-0.082031 0.03125-0.078125 0.003907-0.023437-0.058594-0.003907z"/>
  <path d="m365.51 374.76c-0.003907 0.007812 0 0.019531-0.003907 0.027343l-0.097656 0.14844c-0.003906 0.007812-0.019531 0.003906-0.027344 0.007812-0.003906 0.019532-0.003906 0.027344-0.015624 0.042969l-0.10547 0.10547c-0.003907 0.007812-0.019531 0.007812-0.027344 0.007812-0.007813 0.007813-0.007813 0.027344-0.019531 0.039063l-0.097656 0.066406c-0.023438 0.019531-0.050782 0.019531-0.082032 0.027344-0.015625 0-0.023437 0.019531-0.039062 0.027344l-0.097656 0.019531c-0.027344 0.007812-0.058594 0.007812-0.085938 0.007812-0.023438 0-0.050781 0-0.082031-0.007812-0.015625 0-0.019531-0.019531-0.03125-0.019531-0.03125 0-0.0625-0.027344-0.089844-0.039063-0.003906-0.007812-0.007813-0.007812-0.019531-0.007812-0.042969-0.019532-0.089844-0.019532-0.125-0.058594l-0.066406-0.066406c-0.023438-0.027344-0.019532-0.066406-0.03125-0.09375-0.007813-0.007813-0.03125-0.007813-0.039063-0.027344l-0.042969-0.097656c-0.003906-0.019532 0.003906-0.027344 0-0.046875s-0.023437-0.027344-0.023437-0.046875l-0.015625-0.13672c0-0.019531 0.007812-0.027344 0.007812-0.039063 0-0.007812-0.015625-0.019531-0.007812-0.027343l0.015625-0.16406c0-0.015625 0.007812-0.019531 0.007812-0.027344 0-0.007812-0.003906-0.019531-0.003906-0.027343l0.042969-0.17578c0-0.007813 0.007812-0.007813 0.007812-0.019532v-0.007812c0-0.007813 0.007813-0.007813 0.007813-0.007813v-0.019531l0.0625-0.16016c0-0.003906 0.007812-0.003906 0.015625-0.015625v-0.019531l0.0625-0.11719-1.4766 1.2656c0.003907-0.003906 0.007813 0.003906 0.015625 0.003906 0.058594-0.019531 0.11328-0.046875 0.17578-0.027343 0.015624 0.007812 0.023437 0.027343 0.042968 0.039062 0.074219 0.007812 0.15234 0.027344 0.20312 0.09375l0.066407 0.066406c0.019531 0.019532 0.015624 0.046875 0.023437 0.066406 0.007813 0.019532 0.039063 0.027344 0.046875 0.046876l0.042969 0.10937c0.003906 0.019532-0.003907 0.027344 0 0.046876 0.003906 0.019531 0.023437 0.027343 0.023437 0.046874l0.015625 0.13672c0 0.007813-0.007812 0.019531-0.007812 0.039063 0 0.007812 0.015625 0.019531 0.007812 0.027344l-0.015625 0.16406c0 0.007812-0.007812 0.019531-0.007812 0.027344 0 0.007812 0.003906 0.019531 0.003906 0.027344l-0.042969 0.17578c-0.003906 0.007812-0.007812 0.007812-0.015625 0.019531-0.003906 0.007812 0.003906 0.007812 0 0.019531 0 0.007813-0.015625 0.019531-0.019531 0.027344s0.003906 0.019531 0 0.027344l-0.046875 0.11719c0 0.007813-0.015625 0.007813-0.015625 0.007813-0.003906 0.007812 0 0.019531-0.003906 0.027343l-0.085938 0.16406c0 0.007813-0.007812 0-0.015625 0.007813-0.003906 0.007812 0 0.019531-0.003906 0.027343l-0.097656 0.13672c-0.003906 0.007812-0.015625 0.007812-0.019532 0.019531-0.003906 0.007813-0.003906 0.019531-0.007812 0.027344l-0.097656 0.10938c-0.007813 0.007812-0.027344 0.007812-0.039063 0.019531-0.007812 0.007813-0.007812 0.027344-0.023437 0.039063l-0.085938 0.058594c-0.015625 0.007812-0.027344 0.003906-0.042968 0.007812-0.007813 0.007812-0.007813 0.019531-0.019532 0.023438-0.015625 0.003906-0.027344 0.003906-0.042968 0.003906-0.003907 0.007812-0.007813 0.015625-0.015626 0.019531l-0.097656 0.027344c-0.03125 0.007812-0.066406 0.007812-0.097656 0.007812s-0.066406 0-0.09375-0.007812c-0.019531-0.007813-0.027344-0.027344-0.046875-0.039063-0.027344-0.007812-0.058594-0.019531-0.082031-0.039062-0.042969-0.019532-0.089844-0.019532-0.125-0.046875l-0.058594-0.066407v1.8711l0.082031-0.15625c0.003907-0.007812 0.015625-0.007812 0.023438-0.019531 0.003906-0.007813 0-0.019531 0.003906-0.027344l0.097656-0.13672c0.003907-0.007812 0.019531-0.007812 0.023438-0.019531 0.003906-0.007812 0.003906-0.019531 0.007812-0.027343l0.10547-0.10938c0.007812-0.007812 0.023438-0.003906 0.03125-0.015624 0.007812-0.003907 0.007812-0.023438 0.023438-0.03125l0.097656-0.066407c0.019531-0.019531 0.046875-0.007812 0.070312-0.019531 0.015625-0.007812 0.023438-0.023438 0.042969-0.027344h0.003906c0.003907-0.003906 0.003907-0.007812 0.007813-0.007812h0.015625 0.003906c0.007813 0 0.007813-0.007813 0.019531-0.007813 0.027344-0.007812 0.046875 0.007813 0.074219 0.007813 0.046875-0.007813 0.09375-0.039063 0.14844-0.019532 0.019532 0 0.027344 0.027344 0.046876 0.039063 0.066406 0.007813 0.13672 0.023437 0.1875 0.074219l0.066406 0.066406c0.019531 0.019531 0.015625 0.046875 0.027344 0.074219 0.015624 0.019531 0.042968 0.027343 0.050781 0.046875l0.042969 0.10938c0.003906 0.019531-0.003907 0.027343 0 0.046875 0.003906 0.019531 0.023437 0.027344 0.023437 0.046875l0.015625 0.14844c0 0.007813-0.007812 0.019532-0.007812 0.027344 0 0.015625 0.015624 0.019531 0.007812 0.039062l-0.015625 0.15625c0 0.007813-0.007813 0.019532-0.007813 0.027344 0 0.007813 0.003907 0.019532 0.003907 0.027344l-0.042969 0.17578c-0.003906 0.007813-0.007812 0.007813-0.015625 0.019531-0.003906 0.007813 0 0.007813 0 0.019532l-0.066406 0.17578c0 0.007813-0.007813 0.003906-0.015625 0.007813 0 0.007812 0.003906 0.019531 0 0.027343l-0.085938 0.16406c-0.003906 0.007812-0.015625 0.003906-0.019531 0.007812-0.003906 0.007813 0 0.019532-0.003906 0.027344l-0.039063 0.058594 1.6445-1.4062-0.09375 0.027344c-0.027344 0.003906-0.058594 0.007812-0.085938 0.007812-0.03125 0-0.066406-0.007812-0.09375-0.019531-0.019531 0-0.027344-0.023438-0.046875-0.027344-0.003906-0.003906-0.015625-0.007813-0.019531-0.007813-0.019532-0.015624-0.042969-0.015624-0.0625-0.027343-0.039063-0.019531-0.082032-0.019531-0.10938-0.046875l-0.066407-0.066406c-0.027343-0.027344-0.023437-0.066407-0.039062-0.09375-0.007812-0.019532-0.03125-0.007813-0.042969-0.027344l-0.042969-0.10938c-0.003906-0.007813 0.003907-0.027344 0-0.046875-0.003906-0.019532-0.023437-0.027344-0.023437-0.046875l-0.015625-0.13672c0-0.019531 0.007812-0.027344 0.007812-0.039062 0-0.007813-0.015624-0.019532-0.007812-0.027344l0.015625-0.16406c0-0.007812 0.007813-0.019531 0.007813-0.027343 0-0.007813-0.003907-0.015626-0.003907-0.023438l0.042969-0.17578c0-0.003907 0.007812-0.003907 0.007812-0.015625v-0.019532s0.007813 0 0.007813-0.007812v-0.015625l0.0625-0.16016c0-0.007813 0.007813-0.007813 0.015625-0.019531v-0.019532l0.085938-0.16406c0.003906-0.007813 0.015624-0.007813 0.019531-0.019532 0.003906 0 0-0.007812 0.003906-0.019531l0.097656-0.14844c0.003907-0.007813 0.019531-0.003906 0.023438-0.007813 0.003906-0.007812 0.003906-0.027343 0.007812-0.039062l0.097657-0.097657c0.007812-0.007812 0.027343-0.007812 0.039062-0.019531 0.007812-0.007812 0.007812-0.027343 0.023438-0.039062l0.10547-0.066407c0.015625-0.007812 0.03125-0.003906 0.050782-0.007812 0.019531-0.007812 0.023437-0.027344 0.042968-0.039062 0.003906 0 0.015625 0.003906 0.019532 0 0.003906 0 0.003906-0.007813 0.015624-0.007813 0.007813 0 0.019532 0.007813 0.027344 0 0.007813 0 0.015625-0.007813 0.023438-0.007813 0.023437-0.007812 0.046875 0.007813 0.070312 0.007813 0.042969-0.003906 0.074219-0.027344 0.125-0.019531 0.003906 0 0.007813 0.007812 0.019532 0.007812 0.09375 0.007813 0.18359 0.046875 0.25 0.11719 0.003906 0.003906 0 0.015625 0.003906 0.019531s0.007812 0 0.015625 0.007813c0.007812 0.007812 0.003906 0.019531 0.015625 0.027343v-1.8477l-0.066406 0.13281c0.035156 0.019531 0.023437 0.015624 0.019531 0.019531z"/>
  <path d="m327.43 374.37-0.10547 0.039062-0.097656 0.058594-0.085937 0.070312-0.0625 0.085938-0.03125 0.074219v0.019531l0.066406 0.011719 0.078125-0.007813h0.011719l0.10547-0.03125 0.10156-0.058594 0.078125-0.066406 0.070313-0.089844 0.027343-0.074218 0.003907-0.023438-0.066407-0.011718z"/>
  <path d="m331.03 373.62-0.097656 0.035156-0.10156 0.058594-0.082031 0.070312-0.0625 0.085938-0.03125 0.070312-0.003906 0.019532 0.066406 0.007812 0.09375-0.003906 0.097656-0.03125 0.050782-0.023438h0.007812l0.042969-0.03125 0.089843-0.074218 0.0625-0.082032 0.003907-0.007812v-0.003906l0.023437-0.0625 0.003906-0.027344-0.066406-0.011719z"/>
  <path d="m331.03 375.43-0.097656 0.035156-0.10156 0.054687-0.082031 0.074219-0.0625 0.085938-0.03125 0.070312-0.003906 0.019531 0.066406 0.019531 0.09375-0.015624 0.10547-0.03125 0.09375-0.054688 0.089843-0.074219 0.0625-0.085937 0.027344-0.070313 0.003906-0.023437-0.066406-0.011719z"/>
  <path d="m566.39 397.42 26.895-15.531v-3.8398l-26.895 15.527z"/>
  <path d="m571.78 364.81-26.902 15.527 20.797 12.008 26.902-15.531z"/>
  <path d="m488.32 417.96 31.824 18.371 16.211-9.3633-31.816-18.371z"/>
  <path d="m467.29 430.1 31.816 18.371 16.215-9.3672-31.809-18.371z"/>
  <path d="m447.8 441.36 31.809 18.371 16.223-9.3594-31.82-18.379z"/>
  <path d="m508.84 406.11 31.816 18.367 16.219-9.3594-31.824-18.371z"/>
  <path d="m427.27 454.58 31.82 18.371 16.211-9.3594-31.812-18.379z"/>
  <path d="m544.17 385.41 20.793 12.008v-3.8438l-20.793-12.004z"/>
 </g>
</svg>
